<?xml version="1.0" encoding="utf-8"?>
<!-- Generator: Adobe Illustrator 21.0.0, SVG Export Plug-In . SVG Version: 6.00 Build 0)  -->
<svg version="1.1" id="Layer_1" xmlns="http://www.w3.org/2000/svg" xmlns:xlink="http://www.w3.org/1999/xlink" x="0px" y="0px"
	 viewBox="0 0 104.6 114.1" style="enable-background:new 0 0 104.6 114.1;" xml:space="preserve">
<style type="text/css">
	.st0{fill:#ffffff;}
</style>
<g>
	<g>
		<path class="st0" d="M27.3,49c-0.3,0-0.5-0.1-0.7-0.3c-0.6-0.8-1.2-1.7-1.7-2.6c-0.2-0.4-0.1-0.9,0.3-1.2c0.4-0.2,0.9-0.1,1.2,0.3
			c0.5,0.8,1,1.7,1.6,2.4c0.3,0.4,0.2,0.9-0.2,1.2C27.7,49,27.5,49,27.3,49z"/>
	</g>
	<g>
		<path class="st0" d="M81.9,41.4c-0.1,0-0.2,0-0.3-0.1c-0.4-0.2-0.7-0.6-0.5-1.1c0.7-1.9,1.1-3.8,1.4-5.7c0.1-0.5,0.5-0.8,1-0.7
			c0.5,0.1,0.8,0.5,0.7,1c-0.3,2.1-0.8,4.1-1.5,6.1C82.6,41.2,82.3,41.4,81.9,41.4z M23.2,41c-0.4,0-0.7-0.2-0.8-0.6
			c-0.7-2-1.1-4-1.3-6.1c-0.1-0.5,0.3-0.9,0.7-0.9c0.5-0.1,0.9,0.3,0.9,0.7c0.2,2,0.6,3.9,1.3,5.8c0.1,0.4-0.1,0.9-0.5,1.1
			C23.3,41,23.3,41,23.2,41z M83.6,29.5c-0.4,0-0.8-0.3-0.8-0.8l0-0.4c-0.2-1.8-0.5-3.6-1-5.4c-0.1-0.5,0.1-0.9,0.6-1
			c0.5-0.1,0.9,0.1,1,0.6c0.5,1.8,0.9,3.8,1,5.7l0,0.5C84.5,29,84.1,29.4,83.6,29.5C83.6,29.5,83.6,29.5,83.6,29.5z M21.8,29
			C21.8,29,21.8,29,21.8,29c-0.5,0-0.9-0.5-0.8-0.9c0.2-2.1,0.6-4.1,1.2-6.1c0.1-0.4,0.6-0.7,1.1-0.6c0.4,0.1,0.7,0.6,0.6,1.1
			c-0.6,1.9-1,3.8-1.2,5.8C22.6,28.7,22.2,29,21.8,29z M80.3,17.9c-0.3,0-0.6-0.2-0.8-0.5c-0.9-1.7-2-3.4-3.3-4.9
			c-0.3-0.4-0.2-0.9,0.1-1.2c0.4-0.3,0.9-0.2,1.2,0.1c1.3,1.6,2.5,3.4,3.5,5.2c0.2,0.4,0.1,0.9-0.4,1.1
			C80.6,17.8,80.4,17.9,80.3,17.9z M25.4,17.5c-0.1,0-0.3,0-0.4-0.1c-0.4-0.2-0.6-0.7-0.3-1.2c1-1.8,2.2-3.5,3.6-5.1
			c0.3-0.4,0.8-0.4,1.2-0.1c0.4,0.3,0.4,0.8,0.1,1.2c-1.3,1.5-2.4,3.1-3.4,4.8C26,17.3,25.7,17.5,25.4,17.5z M72.6,8.5
			c-0.2,0-0.4-0.1-0.5-0.2c-1.5-1.2-3.2-2.3-4.9-3.3c-0.4-0.2-0.6-0.7-0.4-1.1C67,3.5,67.6,3.4,68,3.6c1.8,1,3.6,2.1,5.2,3.4
			c0.4,0.3,0.4,0.8,0.1,1.2C73.1,8.4,72.9,8.5,72.6,8.5z M33.2,8.3c-0.3,0-0.5-0.1-0.7-0.3c-0.3-0.4-0.2-0.9,0.1-1.2
			c1.6-1.3,3.4-2.4,5.2-3.4c0.4-0.2,0.9,0,1.1,0.4c0.2,0.4,0,0.9-0.4,1.1c-1.8,0.9-3.4,2-5,3.2C33.6,8.2,33.4,8.3,33.2,8.3z M62,2.9
			c-0.1,0-0.2,0-0.2,0c-1.9-0.6-3.8-0.9-5.8-1.1c-0.5,0-0.8-0.5-0.8-0.9c0-0.5,0.5-0.8,0.9-0.8c2.1,0.2,4.1,0.6,6.1,1.2
			c0.4,0.1,0.7,0.6,0.6,1.1C62.7,2.7,62.3,2.9,62,2.9z M44,2.8c-0.4,0-0.7-0.2-0.8-0.6c-0.1-0.5,0.1-0.9,0.6-1.1c2-0.6,4-1,6.1-1.1
			c0.5,0,0.9,0.3,0.9,0.8c0,0.5-0.3,0.9-0.8,0.9c-2,0.2-3.9,0.5-5.8,1.1C44.1,2.8,44.1,2.8,44,2.8z"/>
	</g>
	<g>
		<path class="st0" d="M77.6,49.4c-0.2,0-0.4-0.1-0.5-0.2c-0.4-0.3-0.4-0.8-0.2-1.2c0.6-0.8,1.1-1.6,1.7-2.4
			c0.2-0.4,0.8-0.5,1.2-0.3c0.4,0.2,0.5,0.8,0.3,1.2c-0.5,0.9-1.1,1.7-1.7,2.5C78.1,49.3,77.8,49.4,77.6,49.4z"/>
	</g>
</g>

<g>
	<path class="st0" d="M78.5,109.6H25.9l-16.3-50l42.6-30.9l42.6,30.9L78.5,109.6z M27.6,107.2h49.1l15.2-46.7L52.2,31.6L12.4,60.5
		L27.6,107.2z"/>
</g>
<g>
	
		<rect x="63.6" y="84.1" transform="matrix(0.5882 -0.8087 0.8087 0.5882 -53.6826 93.3273)" class="st0" width="2.4" height="30.6"/>
</g>
<g>
	<polygon class="st0" points="27.9,109.3 26,108 51,30 53.3,30.7 29.4,105.2 92.5,59.4 93.9,61.3 	"/>
</g>
<g>
	<g>
		<circle class="st0" cx="77.2" cy="108.4" r="1.8"/>
	</g>
	<g>
		<path class="st0" d="M77.2,107.8c0.3,0,0.6,0.3,0.6,0.6s-0.3,0.6-0.6,0.6s-0.6-0.3-0.6-0.6S76.8,107.8,77.2,107.8 M77.2,105.4
			c-1.7,0-3,1.3-3,3s1.3,3,3,3s3-1.3,3-3S78.8,105.4,77.2,105.4L77.2,105.4z"/>
	</g>
</g>
<g>
	<g>
		<circle class="st0" cx="93.2" cy="60.4" r="1.8"/>
	</g>
	<g>
		<path class="st0" d="M93.2,59.8c0.3,0,0.6,0.3,0.6,0.6S93.5,61,93.2,61s-0.6-0.3-0.6-0.6S92.8,59.8,93.2,59.8 M93.2,57.4
			c-1.7,0-3,1.3-3,3s1.3,3,3,3s3-1.3,3-3S94.8,57.4,93.2,57.4L93.2,57.4z"/>
	</g>
</g>
<g>
	<g>
		<circle class="st0" cx="52.2" cy="30.4" r="1.8"/>
	</g>
	<g>
		<path class="st0" d="M52.2,29.8c0.3,0,0.6,0.3,0.6,0.6S52.5,31,52.2,31s-0.6-0.3-0.6-0.6S51.8,29.8,52.2,29.8 M52.2,27.4
			c-1.7,0-3,1.3-3,3c0,1.7,1.3,3,3,3s3-1.3,3-3C55.2,28.7,53.8,27.4,52.2,27.4L52.2,27.4z"/>
	</g>
</g>
<g>
	<g>
		<circle class="st0" cx="11.2" cy="60.4" r="1.8"/>
	</g>
	<g>
		<path class="st0" d="M11.2,59.8c0.3,0,0.6,0.3,0.6,0.6S11.5,61,11.2,61s-0.6-0.3-0.6-0.6S10.8,59.8,11.2,59.8 M11.2,57.4
			c-1.7,0-3,1.3-3,3s1.3,3,3,3s3-1.3,3-3S12.8,57.4,11.2,57.4L11.2,57.4z"/>
	</g>
</g>
<g>
	<g>
		<circle class="st0" cx="27.2" cy="108.4" r="1.8"/>
	</g>
	<g>
		<path class="st0" d="M27.2,107.8c0.3,0,0.6,0.3,0.6,0.6s-0.3,0.6-0.6,0.6s-0.6-0.3-0.6-0.6S26.8,107.8,27.2,107.8 M27.2,105.4
			c-1.7,0-3,1.3-3,3s1.3,3,3,3s3-1.3,3-3S28.8,105.4,27.2,105.4L27.2,105.4z"/>
	</g>
</g>
</svg>
