<?xml version="1.0" encoding="utf-8"?>
<!-- Generator: Adobe Illustrator 21.0.0, SVG Export Plug-In . SVG Version: 6.00 Build 0)  -->
<svg version="1.1" id="Layer_1" xmlns="http://www.w3.org/2000/svg" xmlns:xlink="http://www.w3.org/1999/xlink" x="0px" y="0px"
	 viewBox="0 0 100 100" style="enable-background:new 0 0 100 100;" xml:space="preserve">
<style type="text/css">
	.st0{display:none;}
	.st1{display:inline;fill:none;stroke:#010101;stroke-width:2;stroke-linecap:round;stroke-linejoin:round;stroke-miterlimit:10;}
	.st2{display:inline;fill:none;stroke:#010101;stroke-width:1.5;stroke-linecap:round;stroke-linejoin:round;stroke-miterlimit:10;}
	.st3{enable-background:new    ;}
	.st4{display:inline;fill:#010101;}
	.st5{display:inline;fill:#FFFFFF;}
	.st6{display:inline;}
	.st7{fill:#010101;}
</style>
<g id="Layer_1_1_" class="st0">
	<rect x="31" y="39" class="st1" width="39" height="23"/>
	<polyline class="st1" points="31,39 50,53 70,39 	"/>
	<line class="st2" x1="53.6" y1="50.5" x2="70" y2="62"/>
	<line class="st2" x1="31" y1="62" x2="46.6" y2="50.5"/>
</g>
<g id="Layer_2">
	<g class="st3">
		<path d="M51.4,6C25.3,6,8.9,20.8,8.9,51.3C8.9,79.6,21.2,94,47.3,94c5.3,0,15.1-1.6,19.5-3.8v6.6c-5,1.9-14.5,3.1-19.5,3.1
			C19.6,100,2.6,85.2,2.6,51.3C2.6,13.5,25,0,51.4,0c26.1,0,45.9,12.6,45.9,44.3c0,26.1-11.9,34.9-20.4,34.9
			c-8.8,0-10.7-4.4-10.7-10.7c-4.7,7.9-11.9,11-21.4,11c-8.8,0-18.2-3.1-18.2-15.7c0-16.7,16.7-17.9,39.6-17.9v-7.2
			c0-9.7-4.4-12.6-15.1-12.6c-9.4,0-16.4,3.1-16.4,11.6v1.9H29c0-0.9-0.3-1.9-0.3-2.8c0-10.1,9.7-15.4,22.3-15.4
			c14.2,0,21.1,5.3,21.1,16.7v32.1c0,3.1,1.3,4.7,4.7,4.7c7.5,0,14.5-7.9,14.5-29.9C91,17,74.6,6,51.4,6z M32.5,63.5
			c0,7.5,4.4,10.7,13.5,10.7c9.7,0,20.1-6,20.1-19.8v-4.1C45.7,50.3,32.5,51.3,32.5,63.5z"/>
	</g>
</g>
<g id="Layer_3" class="st0">
	<path class="st1" d="M34.5,46l18.8,18.5c3.2,3.2,8.4,3.1,11.5-0.1l3.2-3.3c0.7-0.8,0.7-2,0-2.7l-4.3-4.2c-0.8-0.7-2-0.7-2.7,0
		l-0.7,0.7c-1.8,1.8-4.7,1.8-6.5,0.1L44,45.3c-1.8-1.8-1.8-4.7-0.1-6.5l0.7-0.7c0.7-0.8,0.7-2,0-2.7l-4.3-4.2c-0.8-0.7-2-0.7-2.7,0
		l-3.2,3.3C31.2,37.7,31.2,42.8,34.5,46z"/>
</g>
<g id="Layer_4" class="st0">
	<path class="st4" d="M44.7,48.8c0.5,4.7,5.8,10,5.8,10s5.3-5.3,5.8-10c0-0.2,0.1-0.5,0.1-0.7c0-3.2-2.6-5.8-5.8-5.8
		s-5.8,2.6-5.8,5.8C44.6,48.3,44.6,48.6,44.7,48.8z"/>
	<circle class="st5" cx="50.5" cy="48.1" r="2"/>
	<g class="st6">
		<path class="st7" d="M40.7,30.5v8.2c0,1.4-1.2,2.6-2.6,2.6h-6.8v2h6.8c2.5,0,4.5-2,4.5-4.6v-8.2H40.7z"/>
		<path class="st7" d="M45.8,48.3c-0.2,0.5-0.3,0.9-0.3,1.4V52H31.3v1.9h7.5v4.3c0,1.4-1.1,2.5-2.5,2.5h-5v2h5c2.4,0,4.4-2,4.4-4.4
			V54h4.9v15.4h2V53.9h2.2C46.8,53.5,45.5,50.8,45.8,48.3z"/>
		<path class="st7" d="M51.5,53.9H70V52H54.6C53.9,53,52.9,53.7,51.5,53.9z"/>
		<path class="st7" d="M60.2,36.4v-5.9h-2v12.1c0,1.4-1.2,2.6-2.6,2.6h-1.8c0.6,0.5,1,1.2,1.3,2h0.5c2.5,0,4.6-2,4.6-4.6v-4.2H70v-2
			H60.2z"/>
		<path class="st7" d="M53.4,69.3v-4c0-0.9,0.7-1.6,1.6-1.6h6.6c0.9,0,1.6,0.7,1.6,1.6v4h2v-4c0-1.9-1.6-3.5-3.5-3.5H55
			c-1.9,0-3.5,1.6-3.5,3.5v4H53.4z"/>
	</g>
	<rect x="31" y="30.5" class="st1" width="39" height="39"/>
</g>
</svg>
