<?xml version="1.0" encoding="utf-8"?>
<!-- Generator: Adobe Illustrator 21.0.0, SVG Export Plug-In . SVG Version: 6.00 Build 0)  -->
<svg version="1.1" id="Layer_1" xmlns="http://www.w3.org/2000/svg" xmlns:xlink="http://www.w3.org/1999/xlink" x="0px" y="0px"
	 viewBox="0 0 100 100" style="enable-background:new 0 0 100 100;" xml:space="preserve">
<style type="text/css">
	.st0{fill:#010101;}
	.st1{display:none;}
	.st2{display:inline;}
	.st3{font-family:'Chivo-Light';}
	.st4{font-size:37.4045px;}
	.st5{display:inline;fill:none;stroke:#010101;stroke-width:2;stroke-linecap:round;stroke-linejoin:round;stroke-miterlimit:10;}
	.st6{display:inline;fill:#010101;}
	.st7{display:inline;fill:#FFFFFF;}
</style>
<g id="Layer_1_1_">
	<g>
		<path class="st0" d="M97.6,81H2.4C1.1,81,0,79.9,0,78.5V22.5C0,21.1,1.1,20,2.4,20h95.1c1.3,0,2.4,1.1,2.4,2.4v56.1
			C100,79.9,98.9,81,97.6,81z M4.9,76.1h90.2V24.9H4.9V76.1z"/>
	</g>
	<g>
		<path class="st0" d="M48.8,59c-0.5,0-1-0.2-1.4-0.5L1,24.4c-1.1-0.8-1.3-2.3-0.5-3.4c0.8-1.1,2.3-1.3,3.4-0.5l44.9,33.1l47.3-33.1
			c1.1-0.8,2.6-0.5,3.4,0.6c0.8,1.1,0.5,2.6-0.6,3.4L50.2,58.6C49.8,58.9,49.3,59,48.8,59z"/>
	</g>
	<g>
		<path class="st0" d="M97.6,80.4c-0.4,0-0.7-0.1-1-0.3l-40-28c-0.8-0.6-1-1.7-0.4-2.5c0.6-0.8,1.7-1,2.5-0.4l40,28
			c0.8,0.6,1,1.7,0.4,2.5C98.7,80.1,98.1,80.4,97.6,80.4z"/>
	</g>
	<g>
		<path class="st0" d="M2.4,80.4c-0.6,0-1.1-0.3-1.5-0.7c-0.6-0.8-0.4-2,0.4-2.6l38-28c0.8-0.6,2-0.4,2.6,0.4c0.6,0.8,0.4,2-0.4,2.6
			l-38,28C3.2,80.3,2.8,80.4,2.4,80.4z"/>
	</g>
</g>
<g id="Layer_2" class="st1">
	<text transform="matrix(1 0 0 1 33.4507 62.0352)" class="st2 st3 st4">@</text>
</g>
<g id="Layer_3" class="st1">
	<path class="st5" d="M34.5,46l18.8,18.5c3.2,3.2,8.4,3.1,11.5-0.1l3.2-3.3c0.7-0.8,0.7-2,0-2.7l-4.3-4.2c-0.8-0.7-2-0.7-2.7,0
		l-0.7,0.7c-1.8,1.8-4.7,1.8-6.5,0.1L44,45.3c-1.8-1.8-1.8-4.7-0.1-6.5l0.7-0.7c0.7-0.8,0.7-2,0-2.7l-4.3-4.2c-0.8-0.7-2-0.7-2.7,0
		l-3.2,3.3C31.2,37.7,31.2,42.8,34.5,46z"/>
</g>
<g id="Layer_4" class="st1">
	<path class="st6" d="M44.7,48.8c0.5,4.7,5.8,10,5.8,10s5.3-5.3,5.8-10c0-0.2,0.1-0.5,0.1-0.7c0-3.2-2.6-5.8-5.8-5.8
		s-5.8,2.6-5.8,5.8C44.6,48.3,44.6,48.6,44.7,48.8z"/>
	<circle class="st7" cx="50.5" cy="48.1" r="2"/>
	<g class="st2">
		<path class="st0" d="M40.7,30.5v8.2c0,1.4-1.2,2.6-2.6,2.6h-6.8v2h6.8c2.5,0,4.5-2,4.5-4.6v-8.2H40.7z"/>
		<path class="st0" d="M45.8,48.3c-0.2,0.5-0.3,0.9-0.3,1.4V52H31.3v1.9h7.5v4.3c0,1.4-1.1,2.5-2.5,2.5h-5v2h5c2.4,0,4.4-2,4.4-4.4
			V54h4.9v15.4h2V53.9h2.2C46.8,53.5,45.5,50.8,45.8,48.3z"/>
		<path class="st0" d="M51.5,53.9H70V52H54.6C53.9,53,52.9,53.7,51.5,53.9z"/>
		<path class="st0" d="M60.2,36.4v-5.9h-2v12.1c0,1.4-1.2,2.6-2.6,2.6h-1.8c0.6,0.5,1,1.2,1.3,2h0.5c2.5,0,4.6-2,4.6-4.6v-4.2H70v-2
			H60.2z"/>
		<path class="st0" d="M53.4,69.3v-4c0-0.9,0.7-1.6,1.6-1.6h6.6c0.9,0,1.6,0.7,1.6,1.6v4h2v-4c0-1.9-1.6-3.5-3.5-3.5H55
			c-1.9,0-3.5,1.6-3.5,3.5v4H53.4z"/>
	</g>
	<rect x="31" y="30.5" class="st5" width="39" height="39"/>
</g>
</svg>
